<svg width="40" height="34" viewBox="0 0 40 34" fill="none" xmlns="http://www.w3.org/2000/svg">
<g opacity="0.3">
<path d="M31.9777 19.9322C31.6894 21.9005 30.377 23.8007 28.8167 25.1913C27.2797 26.5611 25.2927 27.6231 23.3879 27.7196L23.369 27.7389L23.2972 27.776C22.895 28.5796 22.8721 29.1639 23.0086 29.615C23.1565 30.1037 23.5529 30.6388 24.3537 31.2001L24.3562 31.2019C25.0193 31.6694 25.9756 31.7304 27.1307 31.3937C28.2676 31.0623 29.3791 30.4009 30.1054 29.7855C32.1097 28.0834 34.1285 25.7637 35.6039 23.1911C37.0836 20.6109 37.9712 17.8576 37.8397 15.2627L37.8332 15.1345L37.8554 15.0081C38.5092 11.2847 38.3108 7.31992 37.2424 4.10793C36.686 2.51668 35.0866 1.61108 33.1744 1.50791L33.1744 1.50791C32.807 1.48807 32.4031 1.45777 31.9726 1.42548C31.0127 1.35349 29.9203 1.27155 28.8044 1.27336C28.0132 1.27464 27.2661 1.31999 26.6209 1.43444C25.9637 1.55099 25.4921 1.72575 25.1916 1.9316L31.9777 19.9322ZM31.9777 19.9322C32.17 18.6304 31.8667 17.5475 30.9908 16.8138C30.2294 16.176 29.2029 15.9632 28.3677 15.848C27.9598 15.7918 27.5357 15.7525 27.1396 15.7158C27.1083 15.7129 27.0771 15.7101 27.0462 15.7072C26.6122 15.6669 26.2108 15.6279 25.8342 15.5708C25.0517 15.4521 24.5824 15.2803 24.3231 15.0592C23.654 14.446 23.3001 13.2608 23.2177 11.6434C23.1516 10.3448 23.2663 9.00859 23.364 7.87165C23.3846 7.63134 23.4045 7.39994 23.4217 7.17968M31.9777 19.9322L23.4217 7.17968M23.4217 7.17968C23.4318 7.0646 23.4415 6.95037 23.4512 6.83701C23.5375 5.8235 23.6179 4.87958 23.8539 4.01996C24.1077 3.09503 24.5104 2.39834 25.1915 1.93165L23.4217 7.17968Z" stroke="#8CC63F" stroke-width="2.27837"/>
<path d="M1.58077 29.8865C1.44426 29.4355 1.46716 28.8511 1.86923 28.0476L1.94116 28.0106L1.96017 27.9911C3.86498 27.8946 5.85202 26.8326 7.38899 25.4628C8.94699 24.0742 10.2577 22.1777 10.5486 20.2125C10.7606 18.9167 10.4742 17.8276 9.59688 17.0875C8.83669 16.4461 7.80382 16.2338 6.96645 16.119C6.55615 16.0628 6.12911 16.0236 5.72993 15.9869C5.69874 15.984 5.66772 15.9812 5.63688 15.9783C5.19988 15.9381 4.79514 15.8991 4.41551 15.842C3.62545 15.7231 3.15351 15.5507 2.89533 15.3307C2.22628 14.7174 1.87235 13.5322 1.78996 11.9149C1.72381 10.6163 1.83859 9.28007 1.93624 8.14314C1.95688 7.90283 1.97676 7.67142 1.994 7.45116C2.00402 7.33621 2.01374 7.2221 2.02339 7.10887C2.10975 6.09524 2.19018 5.15118 2.42616 4.29145C2.68004 3.36652 3.08272 2.66983 3.76374 2.20314C4.06426 1.99726 4.53594 1.82248 5.19311 1.70592C5.83835 1.59148 6.58543 1.54612 7.37669 1.54484C8.49259 1.54304 9.58493 1.62497 10.5448 1.69697C10.9753 1.72926 11.3792 1.75955 11.7466 1.77939L11.7467 1.7794C13.659 1.88257 15.2583 2.78817 15.8147 4.3794C16.883 7.59141 17.0815 11.5562 16.4277 15.2796L16.4055 15.406L16.412 15.5342C16.5435 18.1291 15.6558 20.8823 14.1761 23.4625C12.7008 26.035 10.6821 28.3548 8.67785 30.0568C7.95152 30.6723 6.8399 31.3338 5.70282 31.6652C4.54777 32.0018 3.59142 31.9408 2.92837 31.4734L2.92583 31.4716C2.12501 30.9103 1.72868 30.3752 1.58077 29.8865Z" stroke="#8CC63F" stroke-width="2.27837"/>
</g>
</svg>
