<svg width="40" height="34" viewBox="0 0 40 34" fill="none" xmlns="http://www.w3.org/2000/svg">
<g opacity="0.3">
<path d="M16.978 3.37558C17.1029 3.82997 17.065 4.41354 16.6423 5.20652L16.5695 5.24175L16.5502 5.26062C14.6436 5.3082 12.6299 6.31884 11.0583 7.64873C9.46276 8.99885 8.10203 10.8647 7.76334 12.825C7.53766 14.1214 7.81314 15.2117 8.66992 15.9677C9.4147 16.6248 10.4353 16.8639 11.2673 17.0005C11.6736 17.0672 12.0966 17.1173 12.4916 17.1641C12.5229 17.1678 12.5539 17.1715 12.5848 17.1752C13.0176 17.2266 13.4179 17.2759 13.7929 17.3426C14.5721 17.4813 15.0367 17.6652 15.2903 17.8928C15.9435 18.523 16.2669 19.7169 16.3077 21.3359C16.3405 22.6357 16.1915 23.9686 16.0647 25.1026C16.0379 25.3423 16.0121 25.5731 15.9892 25.7929C15.9762 25.9077 15.9635 26.0216 15.951 26.1347C15.8386 27.1457 15.734 28.0872 15.4761 28.9405C15.1986 29.8586 14.7782 30.5447 14.0853 30.9938C13.7796 31.1919 13.3036 31.3545 12.6437 31.4541C11.9957 31.552 11.2477 31.5781 10.4567 31.5591C9.3411 31.5323 8.25123 31.4223 7.2935 31.3257C6.86395 31.2824 6.46099 31.2417 6.09421 31.2125L6.09415 31.2125C4.18526 31.0603 2.60967 30.1139 2.09428 28.5089C1.10865 25.2706 1.01202 21.302 1.76116 17.5966L1.7866 17.4708L1.7834 17.3424C1.71857 14.745 2.67657 12.0154 4.222 9.47409C5.7629 6.94022 7.84054 4.67304 9.88791 3.023C10.6297 2.42638 11.7578 1.79375 12.9029 1.49165C14.0662 1.18475 15.0207 1.27028 15.6715 1.75461L15.674 1.75645C16.4602 2.33815 16.8426 2.88325 16.978 3.37558Z" stroke="#8CC63F" stroke-width="2.27837"/>
<path d="M38.0703 5.48569C38.4928 4.69277 38.5307 4.10924 38.4058 3.65488C38.2705 3.16255 37.888 2.61744 37.1019 2.03575L37.0994 2.0339C36.4486 1.54958 35.4941 1.46404 34.3308 1.77095C33.1856 2.07308 32.0573 2.70578 31.3155 3.30245C29.2682 4.95248 27.1906 7.21963 25.6497 9.75343C24.1043 12.2948 23.1463 15.0244 23.2111 17.6217L23.2143 17.7501L23.1889 17.8759C22.4398 21.5813 22.5364 25.5499 23.5219 28.7883C24.0373 30.3932 25.6129 31.3396 27.5219 31.4918L27.522 31.4918C27.8887 31.521 28.2917 31.5617 28.7212 31.605C29.679 31.7016 30.7688 31.8116 31.8844 31.8384C32.6755 31.8574 33.4235 31.8313 34.0714 31.7334C34.7313 31.6338 35.2073 31.4712 35.513 31.2731L38.0703 5.48569ZM38.0703 5.48569L37.9974 5.52092L37.9779 5.53991C36.0712 5.5875 34.0576 6.59813 32.486 7.92803C30.8929 9.27613 29.5339 11.1384 29.1926 13.0955C28.9475 14.3855 29.2059 15.4815 30.0639 16.2439C30.8074 16.9046 31.8344 17.1433 32.6686 17.2795C33.0772 17.3463 33.5031 17.3965 33.9011 17.4433C33.9323 17.447 33.9633 17.4507 33.9941 17.4543C34.4299 17.5058 34.8335 17.5552 35.2116 17.622C35.9983 17.7611 36.4657 17.9456 36.7181 18.1721C37.3712 18.8023 37.6946 19.9962 37.7355 21.6152C37.7683 22.915 37.6192 24.2479 37.4924 25.3819C37.4656 25.6216 37.4398 25.8524 37.4169 26.0722C37.404 26.1868 37.3913 26.3007 37.3788 26.4136C37.2664 27.4247 37.1618 28.3664 36.9038 29.2198C36.6263 30.1379 36.2058 30.824 35.5131 31.2731L38.0703 5.48569Z" stroke="#8CC63F" stroke-width="2.27837"/>
</g>
</svg>
