<svg width="50" height="49" viewBox="0 0 50 49" fill="none" xmlns="http://www.w3.org/2000/svg">
<path d="M47.5 18.1657H41.5042C42.2046 16.5941 42.5448 14.8858 42.5 13.1657C42.5 4.44908 36.5 0.92158 36.25 0.775747C36.1241 0.703838 35.9816 0.666016 35.8367 0.666016C35.6917 0.666016 35.5492 0.703838 35.4233 0.775747C35.1667 0.92158 29.1667 4.44908 29.1667 13.1657C29.1232 14.8861 29.4648 16.5944 30.1667 18.1657H25.68C25.7787 17.8989 25.8306 17.6169 25.8333 17.3324C25.8333 16.6694 25.5699 16.0335 25.1011 15.5646C24.6323 15.0958 23.9964 14.8324 23.3333 14.8324H23.18C23.3845 14.2957 23.3845 13.7025 23.18 13.1657H23.3333C23.9964 13.1657 24.6323 12.9024 25.1011 12.4335C25.5699 11.9647 25.8333 11.3288 25.8333 10.6657C25.8333 10.0027 25.5699 9.36682 25.1011 8.89798C24.6323 8.42914 23.9964 8.16575 23.3333 8.16575H10C9.33696 8.16575 8.70107 8.42914 8.23223 8.89798C7.76339 9.36682 7.5 10.0027 7.5 10.6657C7.50276 10.9503 7.55464 11.2322 7.65333 11.4991H7.5C6.83696 11.4991 6.20107 11.7625 5.73223 12.2313C5.26339 12.7002 5 13.336 5 13.9991C5 14.6621 5.26339 15.298 5.73223 15.7668C6.20107 16.2357 6.83696 16.4991 7.5 16.4991H7.65333C7.44886 17.0358 7.44886 17.629 7.65333 18.1657H2.5C1.83696 18.1657 1.20107 18.4291 0.732233 18.898C0.263392 19.3668 0 20.0027 0 20.6657L0 21.4991C0 21.9411 0.175595 22.365 0.488155 22.6776C0.800716 22.9902 1.22464 23.1657 1.66667 23.1657H4.655L7.01167 25.5224C7.32045 25.8331 7.68783 26.0794 8.09251 26.2471C8.4972 26.4147 8.93113 26.5004 9.36917 26.4991H9.68L21.2542 36.9157L9.68 47.3324H5C4.77899 47.3324 4.56702 47.4202 4.41074 47.5765C4.25446 47.7328 4.16667 47.9447 4.16667 48.1657C4.16667 48.3868 4.25446 48.5987 4.41074 48.755C4.56702 48.9113 4.77899 48.9991 5 48.9991H45C45.221 48.9991 45.433 48.9113 45.5893 48.755C45.7455 48.5987 45.8333 48.3868 45.8333 48.1657C45.8333 47.9447 45.7455 47.7328 45.5893 47.5765C45.433 47.4202 45.221 47.3324 45 47.3324H40.32L28.7458 36.9157L40.32 26.4991H40.6308C41.0689 26.5004 41.5028 26.4147 41.9075 26.2471C42.3122 26.0794 42.6795 25.8331 42.9883 25.5224L45.345 23.1657H48.3333C48.7754 23.1657 49.1993 22.9902 49.5118 22.6776C49.8244 22.365 50 21.9411 50 21.4991V20.6657C50 20.0027 49.7366 19.3668 49.2678 18.898C48.7989 18.4291 48.163 18.1657 47.5 18.1657ZM30.8333 13.1657C30.8333 6.62991 34.56 3.40658 35.8333 2.49908C37.1092 3.41575 40.8333 6.63575 40.8333 13.1657C40.9305 14.9187 40.4994 16.6605 39.5958 18.1657H32.0708C31.1673 16.6605 30.7362 14.9187 30.8333 13.1657ZM9.16667 10.6657C9.16667 10.4447 9.25446 10.2328 9.41074 10.0765C9.56702 9.92021 9.77899 9.83241 10 9.83241H23.3333C23.5543 9.83241 23.7663 9.92021 23.9226 10.0765C24.0789 10.2328 24.1667 10.4447 24.1667 10.6657C24.1667 10.8868 24.0789 11.0987 23.9226 11.255C23.7663 11.4113 23.5543 11.4991 23.3333 11.4991H10C9.77899 11.4991 9.56702 11.4113 9.41074 11.255C9.25446 11.0987 9.16667 10.8868 9.16667 10.6657ZM6.66667 13.9991C6.66667 13.7781 6.75446 13.5661 6.91074 13.4098C7.06702 13.2535 7.27899 13.1657 7.5 13.1657H20.8333C21.0543 13.1657 21.2663 13.2535 21.4226 13.4098C21.5789 13.5661 21.6667 13.7781 21.6667 13.9991C21.6667 14.2201 21.5789 14.4321 21.4226 14.5883C21.2663 14.7446 21.0543 14.8324 20.8333 14.8324H7.5C7.27899 14.8324 7.06702 14.7446 6.91074 14.5883C6.75446 14.4321 6.66667 14.2201 6.66667 13.9991ZM9.16667 17.3324C9.16667 17.1114 9.25446 16.8994 9.41074 16.7432C9.56702 16.5869 9.77899 16.4991 10 16.4991H23.3333C23.5543 16.4991 23.7663 16.5869 23.9226 16.7432C24.0789 16.8994 24.1667 17.1114 24.1667 17.3324C24.1667 17.5534 24.0789 17.7654 23.9226 17.9217C23.7663 18.0779 23.5543 18.1657 23.3333 18.1657H10C9.77899 18.1657 9.56702 18.0779 9.41074 17.9217C9.25446 17.7654 9.16667 17.5534 9.16667 17.3324ZM12.1717 26.4991H14.68L23.7542 34.6657L22.5 35.7949L12.1717 26.4991ZM25 33.5449L17.1717 26.4991H32.8283L25 33.5449ZM25 40.2866L32.8283 47.3324H17.1717L25 40.2866ZM37.8283 47.3324H35.32L26.25 39.1657L27.5 38.0366L37.8283 47.3324ZM14.68 47.3324H12.1717L35.32 26.4991H37.8283L14.68 47.3324ZM41.81 24.3441C41.6555 24.4994 41.4718 24.6226 41.2694 24.7064C41.0669 24.7902 40.8499 24.8331 40.6308 24.8324H9.36917C9.15009 24.8331 8.93305 24.7902 8.73064 24.7064C8.52823 24.6226 8.34447 24.4994 8.19 24.3441L7.01167 23.1657H42.9883L41.81 24.3441ZM45 21.4991H1.66667V20.6657C1.66667 20.4447 1.75446 20.2328 1.91074 20.0765C2.06702 19.9202 2.27899 19.8324 2.5 19.8324H47.5C47.721 19.8324 47.933 19.9202 48.0893 20.0765C48.2455 20.2328 48.3333 20.4447 48.3333 20.6657V21.4991H45ZM2.5 47.3324H0.833333C0.61232 47.3324 0.400358 47.4202 0.244078 47.5765C0.0877974 47.7328 0 47.9447 0 48.1657C0 48.3868 0.0877974 48.5987 0.244078 48.755C0.400358 48.9113 0.61232 48.9991 0.833333 48.9991H2.5C2.72101 48.9991 2.93298 48.9113 3.08926 48.755C3.24554 48.5987 3.33333 48.3868 3.33333 48.1657C3.33333 47.9447 3.24554 47.7328 3.08926 47.5765C2.93298 47.4202 2.72101 47.3324 2.5 47.3324ZM49.1667 47.3324H47.5C47.279 47.3324 47.067 47.4202 46.9107 47.5765C46.7545 47.7328 46.6667 47.9447 46.6667 48.1657C46.6667 48.3868 46.7545 48.5987 46.9107 48.755C47.067 48.9113 47.279 48.9991 47.5 48.9991H49.1667C49.3877 48.9991 49.5996 48.9113 49.7559 48.755C49.9122 48.5987 50 48.3868 50 48.1657C50 47.9447 49.9122 47.7328 49.7559 47.5765C49.5996 47.4202 49.3877 47.3324 49.1667 47.3324Z" fill="#8CC63F"/>
<path d="M35.8333 7.33268C36.2936 7.33268 36.6667 6.95959 36.6667 6.49935C36.6667 6.03911 36.2936 5.66602 35.8333 5.66602C35.3731 5.66602 35 6.03911 35 6.49935C35 6.95959 35.3731 7.33268 35.8333 7.33268Z" fill="#8CC63F"/>
<path d="M34.1668 9.83268C34.6271 9.83268 35.0002 9.45959 35.0002 8.99935C35.0002 8.53911 34.6271 8.16602 34.1668 8.16602C33.7066 8.16602 33.3335 8.53911 33.3335 8.99935C33.3335 9.45959 33.7066 9.83268 34.1668 9.83268Z" fill="#8CC63F"/>
<path d="M37.4998 9.83268C37.9601 9.83268 38.3332 9.45959 38.3332 8.99935C38.3332 8.53911 37.9601 8.16602 37.4998 8.16602C37.0396 8.16602 36.6665 8.53911 36.6665 8.99935C36.6665 9.45959 37.0396 9.83268 37.4998 9.83268Z" fill="#8CC63F"/>
<path d="M35.8333 12.3327C36.2936 12.3327 36.6667 11.9596 36.6667 11.4993C36.6667 11.0391 36.2936 10.666 35.8333 10.666C35.3731 10.666 35 11.0391 35 11.4993C35 11.9596 35.3731 12.3327 35.8333 12.3327Z" fill="#8CC63F"/>
<path d="M34.1668 14.8327C34.6271 14.8327 35.0002 14.4596 35.0002 13.9993C35.0002 13.5391 34.6271 13.166 34.1668 13.166C33.7066 13.166 33.3335 13.5391 33.3335 13.9993C33.3335 14.4596 33.7066 14.8327 34.1668 14.8327Z" fill="#8CC63F"/>
<path d="M37.4998 14.8327C37.9601 14.8327 38.3332 14.4596 38.3332 13.9993C38.3332 13.5391 37.9601 13.166 37.4998 13.166C37.0396 13.166 36.6665 13.5391 36.6665 13.9993C36.6665 14.4596 37.0396 14.8327 37.4998 14.8327Z" fill="#8CC63F"/>
<path d="M35.8333 17.3327C36.2936 17.3327 36.6667 16.9596 36.6667 16.4993C36.6667 16.0391 36.2936 15.666 35.8333 15.666C35.3731 15.666 35 16.0391 35 16.4993C35 16.9596 35.3731 17.3327 35.8333 17.3327Z" fill="#8CC63F"/>
</svg>
