<svg width="50" height="50" viewBox="0 0 50 50" fill="none" xmlns="http://www.w3.org/2000/svg">
<g clip-path="url(#clip0_2_4947)">
<g clip-path="url(#clip1_2_4947)">
<path d="M47.5 15.9575V10.6384C47.5 9.79193 47.2366 8.98016 46.7678 8.38164C46.2989 7.78312 45.663 7.44687 45 7.44687C44.337 7.44687 43.7011 7.78312 43.2322 8.38164C42.7634 8.98016 42.5 9.79193 42.5 10.6384V10.9001L41.6292 10.3011L40.5158 6.74581C40.1289 5.51296 39.5341 4.40405 38.7735 3.49788C38.0129 2.59172 37.1053 1.91056 36.1152 1.50281C35.1251 1.09506 34.0768 0.970746 33.0448 1.13869C32.0128 1.30664 31.0225 1.76272 30.1442 2.47453L28.2033 4.05113L27.62 3.59475C26.7683 2.92288 25.8082 2.50675 24.8121 2.37775C23.8161 2.24875 22.81 2.41025 21.87 2.85006L20.2033 1.90964C19.1469 1.31331 18.0051 1.00357 16.85 1.00006C15.5688 0.994296 14.3047 1.37522 13.1608 2.11177C11.805 2.97879 10.6608 4.30326 9.85167 5.94155L7.9525 9.8256L7.46667 10.2128C7.38336 9.41113 7.0642 8.67993 6.57398 8.16768C6.08376 7.65542 5.45922 7.4005 4.82714 7.45466C4.19506 7.50881 3.60281 7.86799 3.1706 8.45927C2.7384 9.05055 2.49864 9.82964 2.5 10.6384V15.9575C1.83696 15.9575 1.20107 16.2938 0.732233 16.8923C0.263392 17.4908 0 18.3026 0 19.149L0 21.2767C0 22.1231 0.263392 22.9349 0.732233 23.5334C1.20107 24.1319 1.83696 24.4681 2.5 24.4681H3.5275L4.11083 30.7033C4.44417 34.233 4.7725 37.7522 4.7775 37.8203C5.09826 41.1777 6.36979 44.2694 8.35251 46.5129C10.3352 48.7563 12.8922 49.9966 15.5417 50.0001H34.4583C37.1072 49.9956 39.6634 48.7548 41.6454 46.5115C43.6274 44.2681 44.8985 41.1769 45.2192 37.8203C45.2275 37.7299 46.1758 27.632 46.4692 24.4681H47.5C48.163 24.4681 48.7989 24.1319 49.2678 23.5334C49.7366 22.9349 50 22.1231 50 21.2767V19.149C50 18.3026 49.7366 17.4908 49.2678 16.8923C48.7989 16.2938 48.163 15.9575 47.5 15.9575ZM44.1667 10.6384C44.1667 10.3562 44.2545 10.0856 44.4107 9.88612C44.567 9.68661 44.779 9.57453 45 9.57453C45.221 9.57453 45.433 9.68661 45.5893 9.88612C45.7455 10.0856 45.8333 10.3562 45.8333 10.6384V15.9575H44.1667V10.6384ZM42.5 15.9575H7.5V12.6958L9.8425 10.8267C10.7 10.1416 11.6685 9.71495 12.6745 9.5791C13.6805 9.44325 14.6975 9.60176 15.6483 10.0426L19.1308 11.6607L18.6533 11.8628C18.4434 11.9521 18.2698 12.1442 18.1708 12.3969C18.0718 12.6496 18.0555 12.9421 18.1254 13.2102C18.1954 13.4782 18.3459 13.6998 18.5438 13.8262C18.7417 13.9526 18.9709 13.9734 19.1808 13.8841L31.2892 8.72347C31.3267 8.7107 31.3725 8.69475 31.4558 8.6607C32.3057 8.31866 33.2004 8.19677 34.0877 8.30218C34.9749 8.40759 35.8367 8.73817 36.6225 9.27453L42.5 13.316V15.9575ZM31.0392 4.27028C31.7105 3.72656 32.4675 3.37818 33.2562 3.24989C34.0449 3.1216 34.846 3.21653 35.6027 3.52795C36.3595 3.83937 37.0532 4.35964 37.6347 5.05182C38.2163 5.744 38.6713 6.59112 38.9675 7.53304L39.3425 8.73092L37.4108 7.40326C35.5473 6.13048 33.3746 5.80915 31.3325 6.50432L29.7833 5.29049L31.0392 4.27028ZM13.9083 4.01389C14.7791 3.46394 15.7338 3.16479 16.705 3.13758C17.6763 3.11038 18.6404 3.35578 19.5292 3.85645L19.9675 4.10326L18.9583 4.87666C18.7687 5.02182 18.632 5.25721 18.5783 5.53103C18.5246 5.80485 18.5584 6.09469 18.6721 6.33677C18.7858 6.57885 18.9702 6.75335 19.1847 6.82188C19.3992 6.89041 19.6262 6.84736 19.8158 6.70219L21.555 5.36921C22.339 4.76329 23.239 4.44616 24.1555 4.45292C25.0719 4.45968 25.969 4.79007 26.7475 5.40751L29.2425 7.36389L21.6767 10.5788L16.2075 8.03943C14.4815 7.24593 12.5984 7.20366 10.8517 7.91921L11.2633 7.07879C11.9089 5.76769 12.8238 4.70764 13.9083 4.01389ZM4.16667 10.6384C4.16667 10.3562 4.25446 10.0856 4.41074 9.88612C4.56702 9.68661 4.77899 9.57453 5 9.57453C5.22101 9.57453 5.43297 9.68661 5.58926 9.88612C5.74554 10.0856 5.83333 10.3562 5.83333 10.6384V15.9575H4.16667V10.6384ZM36.7908 35.1064H30.5683L30.665 30.8511H37.0475L36.7908 35.1064ZM38.7192 30.8511H44.195L43.795 35.1064H38.4617L38.7192 30.8511ZM36.0525 41.4894H30.3025C30.412 40.2378 30.4827 38.9812 30.5142 37.7224L30.5208 37.2341H36.6667L36.6442 37.6086C36.5632 38.9272 36.3633 40.2294 36.0483 41.4894H36.0525ZM21.3858 41.4894C21.2695 40.2174 21.1955 38.9397 21.1642 37.6596L21.1542 37.2341H28.8608L28.8508 37.6596C28.8194 38.9397 28.7455 40.2174 28.6292 41.4894H21.3858ZM13.9592 41.4894C13.6457 40.2299 13.4472 38.9284 13.3675 37.6107L13.3375 37.2341H19.4792L19.4908 37.7224C19.5208 39.0352 19.6 40.283 19.7025 41.4894H13.9592ZM6.20917 35.1064L5.81 30.8511H11.2842L11.5417 35.1064H6.20917ZM12.9592 30.8511H19.3333L19.43 35.1064H13.2092L12.9592 30.8511ZM21 30.8511H29L28.9042 35.1064H21.0983L21 30.8511ZM30.7108 28.7235L30.8067 24.4681H37.4333L37.1767 28.7235H30.7108ZM29.0442 28.7235H20.9525L20.8558 24.4681H29.1408L29.0442 28.7235ZM19.1908 24.4681L19.2867 28.7235H12.8233L12.5667 24.4681H19.1908ZM10.895 24.4681L11.1517 28.7235H5.60583L5.20583 24.4681H10.895ZM6.41667 37.566C6.41667 37.4533 6.40333 37.3458 6.39417 37.2341H11.6667L11.6992 37.7745C11.7758 39.0309 11.9467 40.2745 12.21 41.4894H7.39167C6.89314 40.2637 6.56948 38.9344 6.43583 37.5639L6.41667 37.566ZM8.4925 43.6171H12.7867C13.2914 45.1983 14.0447 46.6306 15 47.8256C13.7474 47.7301 12.5236 47.3072 11.4042 46.5833C10.2848 45.8594 9.2938 44.8498 8.4925 43.6171ZM14.6292 43.6171H19.9233C20.0817 45.0799 20.3883 46.5096 20.8333 47.8724H18.9167C17.265 47.8724 15.6892 46.2767 14.6292 43.6171ZM22.7767 47.8724C22.5683 47.6745 22.0267 46.5681 21.61 43.6171H28.3933C27.9767 46.5681 27.4333 47.6745 27.2267 47.8724H22.7767ZM29.1667 47.8724C29.6116 46.5095 29.9177 45.0794 30.0775 43.6171H35.3725C34.3117 46.2703 32.7358 47.8724 31.0833 47.8724H29.1667ZM35 47.8256C35.9553 46.6306 36.7086 45.1983 37.2133 43.6171H41.5075C40.7062 44.8498 39.7152 45.8594 38.5958 46.5833C37.4764 47.3072 36.2526 47.7301 35 47.8256ZM42.6083 41.4894H37.79C38.0533 40.2745 38.225 39.0299 38.3017 37.7724L38.3333 37.2341H43.5942L43.5633 37.5639C43.4299 38.9344 43.1066 40.2636 42.6083 41.4894ZM44.395 28.7235H38.8483L39.105 24.4681H44.7942L44.395 28.7235ZM48.3333 21.2767C48.3333 21.5588 48.2455 21.8294 48.0893 22.0289C47.933 22.2284 47.721 22.3405 47.5 22.3405H2.5C2.27899 22.3405 2.06702 22.2284 1.91074 22.0289C1.75446 21.8294 1.66667 21.5588 1.66667 21.2767V19.149C1.66667 18.8669 1.75446 18.5963 1.91074 18.3968C2.06702 18.1973 2.27899 18.0852 2.5 18.0852H47.5C47.721 18.0852 47.933 18.1973 48.0893 18.3968C48.2455 18.5963 48.3333 18.8669 48.3333 19.149V21.2767Z" fill="#8CC63F"/>
</g>
<path d="M7.03125 25.7812H5.46875C5.46875 27.5047 4.06719 28.9062 2.34375 28.9062V30.4688C4.06719 30.4688 5.46875 31.8703 5.46875 33.5938H7.03125C7.03125 31.8703 8.43281 30.4688 10.1562 30.4688V28.9062C8.43281 28.9062 7.03125 27.5047 7.03125 25.7812ZM6.25 31.0055C5.90253 30.483 5.45449 30.035 4.93203 29.6875C5.45449 29.34 5.90253 28.892 6.25 28.3695C6.59747 28.892 7.04551 29.34 7.56797 29.6875C7.04551 30.035 6.59747 30.483 6.25 31.0055Z" fill="#8CC63F"/>
</g>
<defs>
<clipPath id="clip0_2_4947">
<rect width="50" height="50" fill="white"/>
</clipPath>
<clipPath id="clip1_2_4947">
<rect width="50" height="50" fill="white"/>
</clipPath>
</defs>
</svg>
