<svg width="208" height="921" viewBox="0 0 208 921" fill="none" xmlns="http://www.w3.org/2000/svg">
<g clip-path="url(#clip0_2_8983)">
<path d="M285.591 -81C317.938 99.9002 -245.595 268.501 -404.321 610.739C-334.333 467.808 -189.946 375.831 142.303 260.553C210.323 236.952 306.994 208.286 374.9 178.493V-81H285.591Z" fill="#8CC63F"/>
<path d="M-166.16 334.052C49.4561 161.442 300.159 43.1245 277.144 -81H222.066C268.682 15.7569 45.518 164.609 -166.16 334.052Z" fill="#2946B8"/>
</g>
<g clip-path="url(#clip1_2_8983)">
<path d="M1136.79 899.187C183.699 887.622 -371.711 475.748 -181.722 87.7285C-352.855 437.238 -75.874 798.506 485.331 949.914H1136.79V899.187Z" fill="#2946B8"/>
<path d="M-215.548 428.281C-148.331 657.578 30.915 839.576 272.863 949.914H464.398C90.1404 848.268 -149.948 652.049 -215.548 428.281Z" fill="#8CC63F"/>
</g>
<defs>
<clipPath id="clip0_2_8983">
<rect width="169" height="166" fill="white" transform="translate(39)"/>
</clipPath>
<clipPath id="clip1_2_8983">
<rect width="208" height="149" fill="white" transform="translate(0 772)"/>
</clipPath>
</defs>
</svg>
